<svg width="29" height="29" viewBox="0 0 29 29" fill="none" xmlns="http://www.w3.org/2000/svg">
<path d="M20.2294 18.6047L19.4956 19.3772C19.4956 19.3772 17.7514 21.2136 12.9905 16.2011C8.22974 11.1889 9.97389 9.35264 9.97389 9.35264L10.436 8.86614C11.5744 7.66768 11.6817 5.74356 10.6884 4.33888L8.65691 1.46549C7.42766 -0.273084 5.05237 -0.502748 3.64344 0.980589L1.11464 3.64295C0.416034 4.37846 -0.0521223 5.3319 0.0046532 6.38958C0.149895 9.09548 1.30614 14.9175 7.75807 21.7101C14.6 28.9134 21.0198 29.1997 23.6451 28.9405C24.4755 28.8587 25.1976 28.4109 25.7795 27.7981L28.0683 25.3887C29.6132 23.7621 29.1775 20.9737 27.2008 19.836L24.1228 18.0643C22.8249 17.3173 21.2438 17.5367 20.2294 18.6047Z" fill="#E9EEFF"/>
</svg>
