<svg width="696" height="647" viewBox="0 0 696 647" fill="none" xmlns="http://www.w3.org/2000/svg">
<path d="M101.928 597.836C237.83 662.61 458.171 662.612 594.073 597.838C729.975 533.062 729.975 428.044 594.073 363.271C458.171 298.497 237.828 298.497 101.926 363.269C-33.9757 428.042 -33.9757 533.062 101.928 597.836Z" fill="#F5F5F5"/>
<path d="M561.562 543.643C579.262 552.079 607.954 552.079 625.654 543.643C643.353 535.21 643.353 521.532 625.654 513.097C607.954 504.663 579.262 504.663 561.562 513.097C543.865 521.532 543.865 535.208 561.562 543.643Z" fill="#EBEBEB"/>
<path d="M91.5125 531.468L107.535 522.219C107.535 522.219 120.753 512.503 127.299 494.467C132.252 480.818 131.569 470.434 128.017 465.231C123.649 458.827 112.346 459.946 111.896 473.448C111.012 500.032 103.255 518.426 91.5125 531.468Z" fill="#27DEBF"/>
<path opacity="0.2" d="M91.5125 531.468L107.535 522.219C107.535 522.219 120.753 512.503 127.299 494.467C132.252 480.818 131.569 470.434 128.017 465.231C123.649 458.827 112.346 459.946 111.896 473.448C111.012 500.032 103.255 518.426 91.5125 531.468Z" fill="black"/>
<path d="M91.5145 532.455C91.2009 532.455 90.8952 532.307 90.7019 532.029C90.3923 531.581 90.5027 530.968 90.9504 530.658C128.023 505.004 120.842 469.265 120.765 468.906C120.651 468.373 120.99 467.849 121.521 467.734C122.057 467.616 122.578 467.957 122.692 468.49C122.773 468.86 130.264 505.851 92.0727 532.279C91.9031 532.399 91.7078 532.455 91.5145 532.455Z" fill="white"/>
<path d="M59.4668 549.97C59.4668 549.97 53.8892 545.428 55.2382 539.281C56.5892 533.131 60.1866 528.711 54.0016 520.779C47.8165 512.844 46.219 502.277 53.4927 496.545C59.1157 492.114 67.8904 498.395 71.0598 486.652C73.3714 478.093 72.5824 459.141 83.503 452.836C94.4215 446.532 101.202 456.023 99.5258 468.878C98.0268 480.379 95.9145 491.451 97.5436 494.467C100.729 500.36 106.204 499.569 105.955 510.373C105.723 520.434 96.2123 528.759 96.2123 528.759L59.4668 549.97Z" fill="#27DEBF"/>
<path d="M77.7933 540.373C77.3002 540.373 76.8762 540.007 76.815 539.506C73.9927 516.136 80.7182 475.787 86.282 463.794C86.5108 463.299 87.0926 463.08 87.5916 463.314C88.0866 463.543 88.2996 464.129 88.0708 464.622C82.6056 476.408 76.0734 516.931 78.7735 539.271C78.8386 539.809 78.452 540.3 77.9116 540.367C77.8722 540.371 77.8327 540.373 77.7933 540.373Z" fill="white"/>
<path d="M77.2588 522.181C77.1128 522.181 76.9669 522.147 76.8269 522.08C69.983 518.735 65.646 506.85 65.4645 506.346C65.2811 505.833 65.5474 505.269 66.0582 505.083C66.571 504.9 67.1351 505.164 67.3205 505.679C67.3619 505.795 71.5687 517.311 77.6927 520.307C78.1818 520.546 78.385 521.138 78.1443 521.627C77.9747 521.978 77.6256 522.181 77.2588 522.181Z" fill="white"/>
<path d="M77.1483 530.056C76.7578 530.056 76.387 529.822 76.2332 529.435C76.032 528.93 76.2766 528.356 76.7815 528.155C88.2976 523.54 95.4767 509.817 95.5477 509.679C95.7982 509.196 96.3919 509.002 96.8751 509.255C97.3602 509.503 97.5496 510.099 97.2991 510.584C96.9954 511.174 89.7058 525.1 77.5132 529.985C77.3949 530.033 77.2706 530.056 77.1483 530.056Z" fill="white"/>
<path d="M479.752 423.96C479.752 423.96 471.127 410.012 470.295 394.825C469.463 379.64 472.796 373.337 477.368 371.526C481.939 369.718 482.287 375.29 484.647 378.593C487.01 381.897 491.787 380.005 493.552 369.736C495.317 359.468 501.792 342.065 515.186 338.743C529.98 335.079 522.046 352.431 518.332 359.202C514.616 365.972 511.721 375.193 514.172 377.704C516.62 380.214 520.417 375.576 524.059 379.877C528.456 385.068 514.79 403.732 506.946 408.26L479.752 423.96Z" fill="#27DEBF"/>
<path d="M491.566 418.086C491.548 418.086 491.531 418.086 491.515 418.084C490.97 418.055 490.554 417.591 490.582 417.049C492.753 376.662 512.462 348.693 512.662 348.415C512.979 347.97 513.596 347.871 514.036 348.188C514.48 348.504 514.581 349.121 514.263 349.563C514.068 349.837 494.688 377.368 492.548 417.153C492.523 417.678 492.089 418.086 491.566 418.086Z" fill="white"/>
<path d="M492.692 406.444C492.531 406.444 492.367 406.404 492.215 406.319C486.691 403.262 483.632 394.194 483.505 393.807C483.334 393.291 483.614 392.732 484.131 392.561C484.645 392.383 485.208 392.671 485.377 393.186C485.407 393.273 488.322 401.911 493.17 404.592C493.645 404.856 493.818 405.456 493.554 405.933C493.377 406.26 493.039 406.444 492.692 406.444Z" fill="white"/>
<path d="M493.659 400.466C493.217 400.466 492.815 400.17 492.704 399.722C492.57 399.192 492.89 398.657 493.416 398.525C507.652 394.926 512.583 387.464 512.63 387.389C512.924 386.932 513.535 386.8 513.991 387.09C514.449 387.382 514.587 387.989 514.293 388.447C514.084 388.78 508.96 396.628 493.899 400.434C493.821 400.456 493.74 400.466 493.659 400.466Z" fill="white"/>
<path d="M265.207 393.294C265.207 393.294 246.295 388.683 245.311 353.271C244.248 315.046 249.946 270.453 227.639 266.826C205.335 263.199 192.819 290.548 193.105 322.332C193.355 350.238 204.593 410.787 265.205 422.654L265.207 393.294Z" fill="#27DEBF"/>
<path opacity="0.2" d="M265.207 393.294C265.207 393.294 246.295 388.683 245.311 353.271C244.248 315.046 249.946 270.453 227.639 266.826C205.335 263.199 192.819 290.548 193.105 322.332C193.355 350.238 204.593 410.787 265.205 422.654L265.207 393.294Z" fill="black"/>
<path d="M265.205 419.013C265.146 419.013 265.087 419.007 265.028 418.997C251.39 416.512 240.29 409.01 232.034 396.697C207.53 360.142 215.25 291.909 217.784 279.991C217.898 279.456 218.419 279.121 218.953 279.232C219.486 279.346 219.825 279.869 219.713 280.401C217.206 292.187 209.55 359.618 233.671 395.6C241.617 407.454 252.285 414.672 265.379 417.057C265.915 417.155 266.27 417.67 266.172 418.204C266.089 418.68 265.673 419.013 265.205 419.013Z" fill="white"/>
<path d="M265.207 509.925C245.652 512.576 213.891 512.529 195.596 498.1C177.301 483.67 181.105 471.233 188.144 466.046C195.182 460.857 201.294 454.928 189.188 443.416C177.08 431.904 157.619 413.404 151.328 385.65C145.034 357.898 148.133 340.554 160.517 334.769C172.534 329.158 175.699 338.073 183.054 356.456C190.409 374.842 206.962 359.079 221.115 364.819C235.266 370.556 234.712 381.918 235.603 391.685C236.497 401.45 241.169 404.15 249.183 404.15C257.196 404.15 265.203 408.775 265.205 418.025L265.207 509.925Z" fill="#27DEBF"/>
<path d="M265.207 477.704C265.121 477.704 265.03 477.692 264.941 477.669C264.095 477.432 243.871 471.545 214.439 444.507C183.084 415.704 168.28 372.52 168.134 372.089C167.96 371.572 168.236 371.012 168.753 370.838C169.27 370.669 169.828 370.943 170.001 371.455C170.145 371.885 184.799 414.601 215.772 443.053C244.812 469.728 265.271 475.71 265.474 475.767C265.998 475.915 266.302 476.458 266.156 476.984C266.034 477.42 265.639 477.704 265.207 477.704Z" fill="white"/>
<path d="M222.63 451.392C222.235 451.392 221.863 451.153 221.711 450.765C215.382 434.499 213.948 399.73 213.891 398.259C213.869 397.716 214.293 397.257 214.837 397.233C215.342 397.239 215.839 397.635 215.861 398.18C215.875 398.537 217.34 434.091 223.549 450.047C223.746 450.556 223.496 451.128 222.987 451.325C222.868 451.37 222.748 451.392 222.63 451.392Z" fill="white"/>
<path d="M222.464 474.785C219.399 474.785 217.279 474.545 217.023 474.513C216.482 474.45 216.096 473.959 216.159 473.416C216.224 472.878 216.709 472.476 217.255 472.555C217.439 472.572 235.789 474.647 244.216 466.052C244.595 465.659 245.222 465.659 245.611 466.036C245.999 466.417 246.005 467.044 245.625 467.431C239.457 473.724 228.89 474.785 222.464 474.785Z" fill="white"/>
<path d="M208.26 101.316L206.142 89.019L195.168 96.2395C194.069 94.137 192.657 92.4488 190.996 91.1747L196.247 76.9723L186.472 74.787L179.249 88.5496C176.857 88.9184 174.331 89.725 171.727 90.9991L168.601 80.6269L156.894 89.8316L157.661 102.06C155.29 104.697 153.123 107.58 151.188 110.613L141.514 110.136L134.731 125.339L143.038 128.881C142.161 132.151 141.597 135.395 141.397 138.515L130.852 148.213L132.97 160.51L143.942 153.29C145.04 155.392 146.452 157.08 148.115 158.355L142.863 172.557L152.639 174.742L162.97 164.67C165.365 164.303 164.781 159.806 167.384 158.532L170.508 168.904L182.218 159.7L181.916 154.889C184.285 152.254 193.233 146.436 195.168 143.403L197.598 139.395L204.38 124.193L201.221 118.469L197.714 111.016L208.26 101.316ZM172.498 141.847C163.517 148.907 160.781 150.448 159.156 141.014C157.531 131.581 162.785 117.195 171.769 110.134C180.75 103.071 184.198 102.545 185.821 111.978C187.444 121.412 181.48 134.784 172.498 141.847Z" fill="#E0E0E0"/>
<path d="M186.474 74.787L199.262 82.1613L192.042 95.9239L179.249 88.5476L186.474 74.787Z" fill="#F5F5F5"/>
<path d="M218.934 96.3952L207.962 103.616L195.17 96.2394L206.144 89.0189L218.934 96.3952Z" fill="#F5F5F5"/>
<path d="M217.171 131.569L208.865 128.025L196.075 120.648L204.38 124.193L217.171 131.569Z" fill="#E0E0E0"/>
<path d="M142.863 172.557L155.655 179.933L160.905 165.731L148.115 158.355L142.863 172.557Z" fill="#E0E0E0"/>
<path d="M183.303 176.28L170.51 168.904L167.386 158.532L180.176 165.908L183.303 176.28Z" fill="#E0E0E0"/>
<path d="M221.05 108.692L218.932 96.3952L207.96 103.616C206.861 101.513 205.447 99.825 203.787 98.5509L209.039 84.3486L199.262 82.1633L192.04 95.9259C189.647 96.2947 187.119 97.1013 184.515 98.3754L181.389 88.0032L169.682 97.2078L170.449 109.436C168.08 112.071 165.911 114.956 163.976 117.99L154.302 117.512L147.519 132.715L155.827 136.257C154.949 139.527 154.387 142.771 154.186 145.894L143.64 155.591L145.758 167.888L156.73 160.668C157.828 162.768 159.241 164.459 160.901 165.733L155.651 179.935L165.428 182.12L172.65 168.358C175.043 167.991 177.569 167.182 180.172 165.908L183.299 176.281L195.006 167.076L194.239 154.848C196.609 152.213 198.777 149.327 200.712 146.294L210.386 146.771L217.167 131.569L208.859 128.027C209.737 124.757 210.301 121.512 210.498 118.392L221.05 108.692ZM185.289 149.223C176.307 156.286 167.708 154.361 166.082 144.927C164.457 135.494 170.423 122.12 179.405 115.059C188.387 107.996 196.984 109.919 198.609 119.353C200.235 128.788 194.27 142.16 185.289 149.223Z" fill="#EBEBEB"/>
<path d="M181.391 88.0013L168.601 80.6249L156.894 89.8296L169.684 97.2059L181.391 88.0013Z" fill="#F5F5F5"/>
<path d="M156.894 89.8295L157.661 102.058L170.449 109.432L169.684 97.2059L156.894 89.8295Z" fill="#E0E0E0"/>
<path d="M163.978 117.988L151.186 110.611L141.514 110.134L154.304 117.51L163.978 117.988Z" fill="#F5F5F5"/>
<path d="M141.514 110.134L134.731 125.337L147.521 132.713L154.304 117.51L141.514 110.134Z" fill="#E0E0E0"/>
<path d="M154.188 145.892L141.397 138.515L130.852 148.213L143.642 155.589L154.188 145.892Z" fill="#F5F5F5"/>
<path d="M145.76 167.886L132.97 160.51L130.852 148.213L143.642 155.589L145.76 167.886Z" fill="#E0E0E0"/>
<path d="M199.262 82.1613L186.474 74.787L196.249 76.9723L209.039 84.3486L199.262 82.1613Z" fill="#F5F5F5"/>
<path d="M150.955 45.5419V27.1741L136.339 33.7635C135.457 30.3711 134.116 27.464 132.39 25.0637L141.599 6.49472L130.351 0L118.874 17.2614C115.933 16.9675 112.744 17.2575 109.366 18.1923L107.762 2.23854L91.8576 11.4215L90.2542 29.2253C86.8757 32.1935 83.6865 35.5859 80.7458 39.274L69.2691 35.2664L58.0212 54.7466L67.2298 62.6811C65.506 67.0714 64.1629 71.5307 63.2813 75.9407L48.6647 86.2301V104.596L63.2813 98.0066C64.1629 101.399 65.506 104.306 67.2298 106.706L58.0212 125.275L69.2691 131.768L80.7458 114.509C83.6865 114.803 86.8757 114.511 90.2542 113.578L91.8576 129.532L107.762 120.349L109.366 102.545C114.105 100.963 119.178 97.2946 122.116 93.6064L130.349 96.5057L141.597 77.0255L134.696 71.079C136.419 66.6887 136.603 59.6694 136.335 55.8333L150.955 45.5419ZM99.8119 91.3975C87.6093 98.4425 80.0239 93.4447 80.0239 79.3547C80.0239 65.2648 90.1082 48.0033 102.311 40.9584C114.513 33.9134 121.905 39.0374 121.905 53.1273C121.907 67.2193 112.014 84.3525 99.8119 91.3975Z" fill="#E0E0E0"/>
<path d="M143.143 7.37822L130.351 0.00189209L118.876 17.2633L131.666 24.6376L143.143 7.37822Z" fill="#F5F5F5"/>
<path d="M163.745 34.5505L150.955 27.1741L136.339 33.7635L149.129 41.1399L163.745 34.5505Z" fill="#F5F5F5"/>
<path d="M104.65 136.908L91.8596 129.532L90.2562 113.578L103.048 120.954L104.65 136.908Z" fill="#E0E0E0"/>
<path d="M58.0251 125.275L70.8154 132.652L80.024 114.083L67.2337 106.706L58.0251 125.275Z" fill="#E0E0E0"/>
<path d="M163.745 52.9182V34.5504L149.129 41.1398C148.247 37.7474 146.904 34.8403 145.18 32.44L154.389 13.871L143.141 7.37628L131.664 24.6377C128.726 24.3438 125.536 24.6337 122.158 25.5686L120.554 9.6168L104.65 18.7997L103.046 36.6035C99.6679 39.5718 96.4787 42.9641 93.5381 46.6523L82.0613 42.6446L70.8134 62.1268L80.022 70.0613C78.2982 74.4516 76.9551 78.909 76.0735 83.319L61.4569 93.6084V111.974L76.0735 105.385C76.9551 108.777 78.2982 111.684 80.022 114.085L70.8134 132.654L82.0613 139.146L93.5381 121.887C96.4787 122.179 99.6679 121.889 103.046 120.956L104.65 136.91L120.554 127.727L122.158 109.923C125.536 106.957 128.726 103.562 131.664 99.8763L143.141 103.884L154.389 84.4037L145.18 76.4692C146.904 72.0789 148.247 67.6216 149.129 63.2116L163.745 52.9182ZM112.602 98.7738C100.4 105.819 90.5066 100.107 90.5066 86.0171C90.5066 71.9271 100.4 54.7919 112.602 47.7469C124.805 40.7019 134.698 46.4137 134.698 60.5036C134.698 74.5956 124.805 91.7288 112.602 98.7738Z" fill="#EBEBEB"/>
<path d="M80.7498 39.274L93.54 46.6503L82.0633 42.6426L69.2731 35.2663L80.7498 39.274Z" fill="#F0F0F0"/>
<path d="M69.2531 35.2686L58.0151 54.7528L70.8041 62.1291L82.0421 42.645L69.2531 35.2686Z" fill="#F5F5F5"/>
<path d="M58.0251 54.7466L70.8154 62.1229L80.024 70.0594L67.2337 62.6811L58.0251 54.7466Z" fill="#E0E0E0"/>
<path d="M63.2872 75.9408L76.0775 83.3171L61.4609 93.6065L48.6687 86.2302L63.2872 75.9408Z" fill="#F5F5F5"/>
<path d="M48.6687 86.2301L61.4609 93.6064V111.97L48.6687 104.596V86.2301Z" fill="#E0E0E0"/>
<path d="M120.556 9.61491L107.764 2.23859L91.8596 11.4215L104.65 18.7979L120.556 9.61491Z" fill="#F5F5F5"/>
<path d="M284.646 536.318L470.09 429.253C471.975 428.162 471.977 426.397 470.092 425.305L452.937 415.38C451.051 414.288 447.992 414.286 446.105 415.376L260.612 522.441C258.724 523.532 258.724 525.297 260.612 526.386L277.814 536.318C279.702 537.405 282.761 537.405 284.646 536.318Z" fill="#E0E0E0"/>
<path d="M464.964 15.9202L297.78 112.444C293.064 115.167 289.24 121.79 289.24 127.236V523.802C289.24 529.25 293.064 531.457 297.78 528.733L464.966 432.212C469.684 429.488 473.506 422.865 473.506 417.419L473.504 20.8529C473.504 15.4055 469.68 13.1965 464.964 15.9202Z" fill="#455A64"/>
<path d="M297.78 112.444L464.964 15.9202C469.183 13.4864 472.675 15.0012 473.372 19.2416C472.731 14.159 469.226 8.52024 464.964 6.05883L458.012 2.04328C453.294 -0.680442 445.645 -0.680442 440.93 2.04328L273.747 98.5667C271.388 99.9276 269.254 102.265 267.708 104.941L291.742 118.816C293.287 116.142 295.423 113.807 297.78 112.444Z" fill="#37474F"/>
<path d="M265.207 509.925C265.207 515.373 269.03 521.996 273.747 524.718L280.702 528.733C284.966 531.194 291.606 531.407 296.33 529.419C292.306 530.946 289.24 528.678 289.24 523.802V127.236C289.24 124.512 290.196 121.495 291.742 118.818L267.708 104.943C266.162 107.62 265.207 110.637 265.207 113.361V509.925Z" fill="#263238"/>
<path d="M302.377 165.297L460.368 74.0808C463.201 72.4457 465.494 73.7711 465.494 77.0392L465.496 370.485C465.496 373.753 463.201 377.727 460.37 379.36L302.379 470.578C299.549 472.211 297.255 470.886 297.255 467.62L297.253 174.174C297.251 170.904 299.547 166.93 302.377 165.297Z" fill="white"/>
<path d="M381.373 79.2265C379.714 80.1851 378.369 82.5143 378.369 84.4294C378.369 86.3465 379.716 87.1216 381.373 86.163C383.033 85.2065 384.377 82.8772 384.377 80.9602C384.377 79.0451 383.033 78.268 381.373 79.2265Z" fill="#37474F"/>
<path d="M381.377 439.057C374.825 442.84 369.513 452.039 369.513 459.605C369.513 467.168 374.823 470.235 381.377 466.452C387.927 462.671 393.238 453.473 393.238 445.907C393.236 438.343 387.927 435.276 381.377 439.057Z" fill="#37474F"/>
<path d="M352.996 109.751C349.678 111.669 346.988 116.327 346.988 120.159C346.988 123.991 349.678 125.544 352.998 123.628C356.317 121.713 359.005 117.055 359.005 113.223C359.005 109.389 356.315 107.836 352.996 109.751Z" fill="#37474F"/>
<path d="M367.687 108.452C367.687 111.006 369.6 111.974 371.957 110.611L411.488 87.7902C413.844 86.4293 415.758 83.2539 415.758 80.6998C415.756 78.1457 413.844 77.1773 411.486 78.5401L371.957 101.361C369.6 102.724 367.687 105.898 367.687 108.452Z" fill="#37474F"/>
<path d="M278.502 177.994C281.157 179.527 283.309 183.255 283.309 186.321C283.309 189.386 281.157 190.629 278.502 189.096C275.848 187.564 273.694 183.836 273.694 180.771C273.694 177.706 275.848 176.462 278.502 177.994Z" fill="#37474F"/>
<path d="M278.502 215.026C281.157 216.558 283.309 220.286 283.309 223.353C283.309 226.42 281.157 227.66 278.502 226.128C275.848 224.595 273.694 220.868 273.694 217.801C273.696 214.736 275.848 213.495 278.502 215.026Z" fill="#37474F"/>
<path d="M277.017 178.738C279.672 180.27 281.826 183.998 281.826 187.063C281.826 190.128 279.674 191.372 277.017 189.838C274.363 188.305 272.211 184.578 272.211 181.513C272.211 178.446 274.365 177.203 277.017 178.738Z" fill="#455A64"/>
<path d="M277.017 215.77C279.672 217.302 281.826 221.03 281.826 224.096C281.826 227.161 279.674 228.404 277.017 226.872C274.363 225.339 272.211 221.611 272.211 218.545C272.211 215.478 274.365 214.237 277.017 215.77Z" fill="#455A64"/>
<path d="M497.54 86.3169C497.54 83.0489 495.246 81.7255 492.414 83.3585L473.504 94.2771L334.422 174.577C331.592 176.212 329.298 180.184 329.298 183.452L329.3 476.898C329.3 480.166 331.594 481.489 334.424 479.856L473.555 399.527L492.416 388.638C495.246 387.003 497.542 383.029 497.542 379.763L497.54 86.3169Z" fill="white" stroke="#27DEBF" stroke-miterlimit="10"/>
<path d="M332.135 481.542C331.478 481.542 330.861 481.384 330.308 481.067C329.022 480.323 328.314 478.842 328.314 476.896L328.312 183.45C328.312 179.813 330.78 175.539 333.929 173.72L473.011 93.421L473.997 95.129L334.916 175.428C332.405 176.878 330.285 180.55 330.285 183.45L330.287 476.896C330.287 478.091 330.653 478.988 331.294 479.359C331.935 479.73 332.896 479.596 333.931 479L473.062 398.671L474.048 400.377L334.918 480.704C333.955 481.264 333.008 481.542 332.135 481.542Z" fill="#27DEBF" stroke="#27DEBF" stroke-miterlimit="10"/>
<path d="M474.048 400.379L473.062 398.673L491.923 387.786C494.434 386.334 496.556 382.66 496.556 379.765L496.554 86.3188C496.554 85.1236 496.187 84.2262 495.546 83.8555C494.909 83.4866 493.946 83.6148 492.907 84.2144L473.997 95.1329L473.011 93.4249L491.921 82.5064C493.605 81.5341 495.244 81.4039 496.532 82.1474C497.816 82.891 498.526 84.3702 498.526 86.3188L498.528 379.765C498.528 383.4 496.061 387.673 492.909 389.494L474.048 400.379Z" fill="#27DEBF" stroke="#27DEBF" stroke-miterlimit="10"/>
<path d="M413.42 154.509C431.12 144.29 445.466 152.574 445.466 173.01C445.466 193.447 431.12 218.296 413.42 228.516C395.721 238.735 381.375 230.451 381.375 210.014C381.375 189.578 395.721 164.727 413.42 154.509Z" fill="#27DEBF"/>
<path d="M413.42 170.592C419.162 167.277 423.816 169.965 423.816 176.594C423.816 183.225 419.162 191.288 413.42 194.601C407.679 197.916 403.022 195.228 403.022 188.597C403.022 181.969 407.679 173.908 413.42 170.592Z" fill="#27DEBF"/>
<path d="M433.683 205.946C433.683 195.053 426.035 190.637 416.604 196.084L410.706 199.488C401.275 204.934 393.626 218.18 393.626 229.073V232.003C399.08 233.814 405.943 232.834 413.42 228.514C421.108 224.075 428.163 216.87 433.683 208.47V205.946Z" fill="#27DEBF"/>
<path opacity="0.7" d="M413.42 170.592C419.162 167.277 423.816 169.965 423.816 176.594C423.816 183.225 419.162 191.288 413.42 194.601C407.679 197.916 403.022 195.228 403.022 188.597C403.022 181.969 407.679 173.908 413.42 170.592Z" fill="white"/>
<path opacity="0.7" d="M433.683 205.946C433.683 195.053 426.035 190.637 416.604 196.084L410.706 199.488C401.275 204.934 393.626 218.18 393.626 229.073V232.003C399.08 233.814 405.943 232.834 413.42 228.514C421.108 224.075 428.163 216.87 433.683 208.47V205.946Z" fill="white"/>
<path d="M351.414 273.585L392.65 249.778C394.538 248.689 396.068 249.572 396.068 251.75V253.111C396.068 255.29 394.54 257.939 392.65 259.028L351.414 282.835C349.528 283.926 347.998 283.042 347.998 280.863V279.502C347.998 277.322 349.528 274.674 351.414 273.585Z" fill="#27DEBF"/>
<path opacity="0.1" d="M351.414 273.585L392.65 249.778C394.538 248.689 396.068 249.572 396.068 251.75V253.111C396.068 255.29 394.54 257.939 392.65 259.028L351.414 282.835C349.528 283.926 347.998 283.042 347.998 280.863V279.502C347.998 277.322 349.528 274.674 351.414 273.585Z" fill="black"/>
<path d="M349.708 302.323L474.474 230.29C475.417 229.745 476.182 230.185 476.182 231.276V245.833C476.182 246.922 475.417 248.247 474.474 248.791L349.708 320.825C348.765 321.369 348 320.928 348 319.839V305.282C348 304.193 348.765 302.867 349.708 302.323Z" fill="#27DEBF"/>
<path opacity="0.2" d="M349.708 302.323L474.474 230.29C475.417 229.745 476.182 230.185 476.182 231.276V245.833C476.182 246.922 475.417 248.247 474.474 248.791L349.708 320.825C348.765 321.369 348 320.928 348 319.839V305.282C348 304.193 348.765 302.867 349.708 302.323Z" fill="white"/>
<path d="M351.414 338.341L392.65 314.533C394.538 313.445 396.068 314.326 396.068 316.506V317.867C396.068 320.044 394.54 322.695 392.65 323.783L351.414 347.591C349.528 348.682 347.998 347.796 347.998 345.619V344.258C347.998 342.078 349.528 339.432 351.414 338.341Z" fill="#27DEBF"/>
<path opacity="0.1" d="M351.414 338.341L392.65 314.533C394.538 313.445 396.068 314.326 396.068 316.506V317.867C396.068 320.044 394.54 322.695 392.65 323.783L351.414 347.591C349.528 348.682 347.998 347.796 347.998 345.619V344.258C347.998 342.078 349.528 339.432 351.414 338.341Z" fill="black"/>
<path d="M349.708 367.079L474.474 295.045C475.417 294.501 476.182 294.943 476.182 296.032V310.589C476.182 311.678 475.417 313.003 474.474 313.547L349.708 385.581C348.765 386.125 348 385.686 348 384.595V370.037C348 368.949 348.765 367.625 349.708 367.079Z" fill="#27DEBF"/>
<path opacity="0.2" d="M349.708 367.079L474.474 295.045C475.417 294.501 476.182 294.943 476.182 296.032V310.589C476.182 311.678 475.417 313.003 474.474 313.547L349.708 385.581C348.765 386.125 348 385.686 348 384.595V370.037C348 368.949 348.765 367.625 349.708 367.079Z" fill="white"/>
<path d="M399.484 375.345L448.732 346.912C450.619 345.822 452.148 346.705 452.148 348.885V364.122C452.148 366.3 450.619 368.951 448.732 370.039L399.484 398.474C397.597 399.562 396.068 398.679 396.068 396.501V381.262C396.068 379.082 397.597 376.433 399.484 375.345Z" fill="#27DEBF"/>
<path opacity="0.1" d="M399.484 375.345L448.732 346.912C450.619 345.822 452.148 346.705 452.148 348.885V364.122C452.148 366.3 450.619 368.951 448.732 370.039L399.484 398.474C397.597 399.562 396.068 398.679 396.068 396.501V381.262C396.068 379.082 397.597 376.433 399.484 375.345Z" fill="black"/>
<path d="M516.241 311.09C516.241 311.09 492.012 277.666 490.535 273.689C489.42 270.692 490.611 266.232 490.888 264.159C491.166 262.089 491.566 257.473 491.909 256.189C492.513 253.949 489.608 254.408 487.978 256.446C486.31 258.533 485.775 262.607 484.945 263.276C484.117 263.944 477.642 254.541 474.263 250.188C470.887 245.833 468.774 243.212 466.721 244.825C465.242 245.987 466.344 248.523 468.792 252.229C471.24 255.935 472.326 257.653 472.695 258.448C473.066 259.244 471.05 259.308 469.964 260.98C469.115 262.286 469.906 264.398 468.782 265.406C467.658 266.414 466.609 268.226 467.841 270.27C469.411 272.871 472.561 276.591 476.182 279.099C479.805 281.61 481.273 282.492 483.409 285.908C485.547 289.322 504.851 324.176 506.147 326.267C507.441 328.359 509.959 332.619 513.766 332.74C517.576 332.864 548.731 306.037 550.336 304.698C555.47 300.416 557.091 299.787 557.977 303.644C558.255 304.852 558.436 306.226 558.63 307.782C559.247 312.666 562.572 330.142 562.572 330.142C562.572 330.142 578.331 337.779 591.304 334.016C604.28 330.253 608.631 324.831 608.631 324.831L602.14 314.253C603.907 309.885 612.068 292.227 614.63 279.851L574.001 273.291C573.167 273.11 571.836 272.774 570.136 272.327C567.905 271.739 562.296 269.771 557.973 273.53C543.995 285.695 516.241 311.09 516.241 311.09Z" fill="#FFA8A7"/>
<path d="M596.791 516.083L589.507 526.205C589.507 526.205 592.882 528.183 600.087 528.457C606.605 528.705 608.396 526.566 608.637 526.051C609.737 523.692 608.019 519.434 607.548 515.773L596.791 516.083Z" fill="#37474F"/>
<path d="M589.916 521.345C589.916 521.345 581.09 520.783 574.988 520.014C568.884 519.242 564.055 522.223 565.491 524.737C566.927 527.248 570.284 529.339 575.512 531.098C579.993 532.607 585.364 533.701 590.042 535.102C594.837 536.537 597.906 538.178 600.622 537.245C603.649 536.202 604.949 534.991 604.692 532.786C604.436 530.581 602.241 523.481 602.241 523.481L589.916 521.345Z" fill="#37474F"/>
<path d="M608.635 505.914C608.635 505.914 607.53 515.107 607.445 517.081C607.36 519.053 598.473 519.686 596.789 516.083L596.513 504.843L608.635 505.914Z" fill="#F28F8F"/>
<path d="M599.673 511.57L602.852 525.516C602.852 525.516 603.152 527.216 595.886 528.299C588.622 529.384 577.23 524.499 575.291 523.507C573.353 522.513 573.12 520.538 580.256 520.933C587.389 521.329 589.916 521.343 589.916 521.343L587.6 515.16L599.673 511.57Z" fill="#FFA8A7"/>
<path d="M614.633 279.853L619.654 278.466C619.654 278.466 630.176 311.731 631.34 314.936C632.503 318.139 633.815 321.557 631.553 325.521C628.857 330.241 614.635 349.234 614.635 349.234L605.607 340.398L615.847 321.634L606.789 303.28L614.633 279.853Z" fill="#F28F8F"/>
<path d="M562.925 236.613C562.925 236.613 558.898 230.167 563.138 222.274C568.136 212.975 579.311 208.437 592.61 210.178C598.754 210.983 606.006 216.026 609.984 223.728C614.354 232.185 614.763 249.233 615.847 255.679L562.925 236.613Z" fill="#37474F"/>
<path d="M562.621 240.253C562.621 240.253 559.462 246.269 560.01 246.817C560.556 247.363 562.665 247.807 562.665 247.807L562.621 240.253Z" fill="#FFA8A7"/>
<path d="M572.211 221.233C568.775 223.473 562.86 227.568 562.6 241.086C562.334 254.963 564.294 259.436 566.345 261.045C567.73 262.13 575.83 261.58 579.307 260.763C582.786 259.947 592.787 255.006 596.387 247.492C600.619 238.654 599.763 225.712 593.464 221.955C584.599 216.667 575.118 219.337 572.211 221.233Z" fill="#FFA8A7"/>
<path d="M608.633 324.835C614.715 334.3 620.498 342.637 621.731 353.273C624.334 375.737 615.788 401.418 613.976 418.029C613.976 418.029 619.715 425.49 619.709 434.257C619.705 441.12 608.635 505.912 608.635 505.912C608.635 505.912 600.582 508.365 596.513 504.841L588.904 385.648L592.912 371.138L608.633 324.835Z" fill="#27DEBF"/>
<path opacity="0.2" d="M608.633 324.835C614.715 334.3 620.498 342.637 621.731 353.273C624.334 375.737 615.788 401.418 613.976 418.029C613.976 418.029 619.715 425.49 619.709 434.257C619.705 441.12 608.635 505.912 608.635 505.912C608.635 505.912 600.582 508.365 596.513 504.841L588.904 385.648L592.912 371.138L608.633 324.835Z" fill="black"/>
<path d="M588.904 385.65L592.912 371.14C592.912 371.14 604.024 368.456 614.632 362.525C614.632 362.525 610.52 369.992 598.744 374.086L592.61 392.74L592.081 435.428L588.904 385.65Z" fill="#27DEBF"/>
<path opacity="0.3" d="M588.904 385.65L592.912 371.14C592.912 371.14 604.024 368.456 614.632 362.525C614.632 362.525 610.52 369.992 598.744 374.086L592.61 392.74L592.081 435.428L588.904 385.65Z" fill="black"/>
<path d="M608.633 324.835C611.887 330.146 619.666 339.228 618.013 347.956C616.007 358.531 610.319 365.965 592.912 371.14L576.587 430.261C576.587 430.261 585.088 438.215 587.687 445.783C590.283 453.349 599.673 511.57 599.673 511.57C599.673 511.57 596.77 516.31 587.6 515.162C587.6 515.162 555.63 442.14 553.371 437.438C551.113 432.736 549.65 429.222 550.666 421.563C551.683 413.907 562.574 330.144 562.574 330.144L608.633 324.835Z" fill="#27DEBF"/>
<path opacity="0.2" d="M608.633 324.835C611.887 330.146 619.666 339.228 618.013 347.956C616.007 358.531 610.319 365.965 592.912 371.14L576.587 430.261C576.587 430.261 585.088 438.215 587.687 445.783C590.283 453.349 599.673 511.57 599.673 511.57C599.673 511.57 596.77 516.31 587.6 515.162C587.6 515.162 555.63 442.14 553.371 437.438C551.113 432.736 549.65 429.222 550.666 421.563C551.683 413.907 562.574 330.144 562.574 330.144L608.633 324.835Z" fill="black"/>
<path d="M614.632 279.853L574.003 273.293C573.171 273.112 571.828 272.774 570.132 272.327L570.128 272.325C570.128 272.325 568.396 297.797 557.977 303.645C558.223 304.859 558.434 306.226 558.63 307.782C559.247 312.666 562.572 330.142 562.572 330.142C562.572 330.142 578.331 337.779 591.304 334.016C604.28 330.253 608.631 324.831 608.631 324.831L602.14 314.253C603.911 309.889 612.072 292.229 614.632 279.853Z" fill="#27DEBF"/>
<path opacity="0.7" d="M614.632 279.853L574.003 273.293C573.171 273.112 571.828 272.774 570.132 272.327L570.128 272.325C570.128 272.325 568.396 297.797 557.977 303.645C558.223 304.859 558.434 306.226 558.63 307.782C559.247 312.666 562.572 330.142 562.572 330.142C562.572 330.142 578.331 337.779 591.304 334.016C604.28 330.253 608.631 324.831 608.631 324.831L602.14 314.253C603.911 309.889 612.072 292.229 614.632 279.853Z" fill="white"/>
<path d="M603.915 310.096C603.75 310.478 590.855 317.387 587.023 318.444C593.064 318.145 598.081 316.725 602.142 314.255L603.915 310.096Z" fill="#27DEBF"/>
<path d="M571.197 221.915C571.197 221.915 569.303 234.741 573.889 242.263C573.889 242.263 575.611 237.159 579.948 238.133C584.314 239.115 584.498 244.786 581.466 248.001C578.433 251.215 575.059 250.054 575.059 250.054C575.059 250.054 574.376 259.323 574.011 267.096C573.658 274.585 571.57 291.805 580.315 298.73C589.062 305.654 610.982 307.991 621.255 293.629C626.971 285.64 619.378 271.516 615.847 255.679C612.599 241.117 610.773 219.539 595.322 216.075C579.871 212.614 571.197 221.915 571.197 221.915Z" fill="#37474F"/>
<path d="M627.872 46.745L624.616 48.6266C624.877 47.4274 625.06 46.2381 625.06 45.0922C625.06 38.495 620.427 35.8205 614.713 39.1202C613.051 40.0787 611.504 41.4672 610.112 43.0746C610.112 43.0588 610.114 43.0411 610.114 43.0253C610.114 34.1441 603.88 30.5427 596.188 34.9843C588.496 39.4259 582.257 50.2261 582.257 59.1092C582.257 59.5609 582.285 59.9908 582.317 60.4149C580.69 60.125 578.747 60.5234 576.658 61.7304C570.944 65.03 566.312 73.0513 566.312 79.6506C566.312 80.5598 566.408 81.3842 566.574 82.1376L564.838 83.1395C560.121 85.8632 556.298 91.1766 556.298 95.0087C556.298 98.8389 560.123 99.7382 564.838 97.0165L627.872 60.624C632.59 57.9002 636.412 52.5869 636.412 48.7548C636.412 44.9207 632.59 44.0213 627.872 46.745Z" fill="#EBEBEB"/>
</svg>
