<svg width="29" height="22" viewBox="0 0 29 22" fill="none" xmlns="http://www.w3.org/2000/svg">
<path fill-rule="evenodd" clip-rule="evenodd" d="M1.69878 1.61091C1.19209e-07 3.22183 0 5.81455 0 11C0 16.1854 1.19209e-07 18.7782 1.69878 20.389C3.39757 22 6.1317 22 11.6 22H17.4C22.8682 22 25.6025 22 27.3012 20.389C29 18.7782 29 16.1854 29 11C29 5.81455 29 3.22183 27.3012 1.61091C25.6025 -1.19209e-07 22.8682 0 17.4 0H11.6C6.1317 0 3.39757 -1.19209e-07 1.69878 1.61091ZM8.7 12.375C9.50081 12.375 10.15 11.7594 10.15 11C10.15 10.2406 9.50081 9.625 8.7 9.625C7.89919 9.625 7.25 10.2406 7.25 11C7.25 11.7594 7.89919 12.375 8.7 12.375ZM15.95 11C15.95 11.7594 15.3008 12.375 14.5 12.375C13.6992 12.375 13.05 11.7594 13.05 11C13.05 10.2406 13.6992 9.625 14.5 9.625C15.3008 9.625 15.95 10.2406 15.95 11ZM20.3 12.375C21.1008 12.375 21.75 11.7594 21.75 11C21.75 10.2406 21.1008 9.625 20.3 9.625C19.4992 9.625 18.85 10.2406 18.85 11C18.85 11.7594 19.4992 12.375 20.3 12.375Z" fill="#E9EEFF"/>
</svg>
